<?xml version="1.0" encoding="UTF-8" standalone="no"?>
<!DOCTYPE svg PUBLIC "-//W3C//DTD SVG 1.1//EN"
 "http://www.w3.org/Graphics/SVG/1.1/DTD/svg11.dtd">
<!-- Generated by graphviz version 2.26.3 (20100126.1600)
 -->
<!-- Title: G Pages: 1 -->
<svg width="388pt" height="690pt"
 viewBox="0.00 0.00 388.00 690.00" xmlns="http://www.w3.org/2000/svg" xmlns:xlink="http://www.w3.org/1999/xlink">
<g id="graph1" class="graph" transform="scale(1 1) rotate(0) translate(4 686)">
<title>G</title>
<polygon fill="white" stroke="white" points="-4,5 -4,-686 385,-686 385,5 -4,5"/>
<g id="graph2" class="cluster"><title>cluster_Global</title>
<polyline fill="none" stroke="gray" points="186,-8 360,-8 "/>
<path fill="none" stroke="gray" d="M360,-8C366,-8 372,-14 372,-20"/>
<polyline fill="none" stroke="gray" points="372,-20 372,-662 "/>
<path fill="none" stroke="gray" d="M372,-662C372,-668 366,-674 360,-674"/>
<polyline fill="none" stroke="gray" points="360,-674 186,-674 "/>
<path fill="none" stroke="gray" d="M186,-674C180,-674 174,-668 174,-662"/>
<polyline fill="none" stroke="gray" points="174,-662 174,-20 "/>
<path fill="none" stroke="gray" d="M174,-20C174,-14 180,-8 186,-8"/>
<text text-anchor="middle" x="273" y="-660.1" font-family="Times Roman,serif" font-size="11.00" fill="gray">\</text>
</g>
<g id="graph3" class="cluster"><title>cluster_\TN</title>
<polyline fill="none" stroke="gray" points="194,-16 352,-16 "/>
<path fill="none" stroke="gray" d="M352,-16C358,-16 364,-22 364,-28"/>
<polyline fill="none" stroke="gray" points="364,-28 364,-632 "/>
<path fill="none" stroke="gray" d="M364,-632C364,-638 358,-644 352,-644"/>
<polyline fill="none" stroke="gray" points="352,-644 194,-644 "/>
<path fill="none" stroke="gray" d="M194,-644C188,-644 182,-638 182,-632"/>
<polyline fill="none" stroke="gray" points="182,-632 182,-28 "/>
<path fill="none" stroke="gray" d="M182,-28C182,-22 188,-16 194,-16"/>
<text text-anchor="middle" x="273" y="-630.1" font-family="Times Roman,serif" font-size="11.00" fill="gray">TN</text>
</g>
<g id="graph4" class="cluster"><title>cluster_\TN\Exception</title>
<polyline fill="none" stroke="gray" points="202,-432 344,-432 "/>
<path fill="none" stroke="gray" d="M344,-432C350,-432 356,-438 356,-444"/>
<polyline fill="none" stroke="gray" points="356,-444 356,-602 "/>
<path fill="none" stroke="gray" d="M356,-602C356,-608 350,-614 344,-614"/>
<polyline fill="none" stroke="gray" points="344,-614 202,-614 "/>
<path fill="none" stroke="gray" d="M202,-614C196,-614 190,-608 190,-602"/>
<polyline fill="none" stroke="gray" points="190,-602 190,-444 "/>
<path fill="none" stroke="gray" d="M190,-444C190,-438 196,-432 202,-432"/>
<text text-anchor="middle" x="273" y="-600.1" font-family="Times Roman,serif" font-size="11.00" fill="gray">Exception</text>
</g>
<g id="graph5" class="cluster"><title>cluster_\TN\Controller</title>
<polyline fill="none" stroke="gray" points="230,-350 316,-350 "/>
<path fill="none" stroke="gray" d="M316,-350C322,-350 328,-356 328,-362"/>
<polyline fill="none" stroke="gray" points="328,-362 328,-412 "/>
<path fill="none" stroke="gray" d="M328,-412C328,-418 322,-424 316,-424"/>
<polyline fill="none" stroke="gray" points="316,-424 230,-424 "/>
<path fill="none" stroke="gray" d="M230,-424C224,-424 218,-418 218,-412"/>
<polyline fill="none" stroke="gray" points="218,-412 218,-362 "/>
<path fill="none" stroke="gray" d="M218,-362C218,-356 224,-350 230,-350"/>
<text text-anchor="middle" x="273" y="-410.1" font-family="Times Roman,serif" font-size="11.00" fill="gray">Controller</text>
</g>
<g id="graph6" class="cluster"><title>cluster_\TN\Utility</title>
<polyline fill="none" stroke="gray" points="223,-106 323,-106 "/>
<path fill="none" stroke="gray" d="M323,-106C329,-106 335,-112 335,-118"/>
<polyline fill="none" stroke="gray" points="335,-118 335,-330 "/>
<path fill="none" stroke="gray" d="M335,-330C335,-336 329,-342 323,-342"/>
<polyline fill="none" stroke="gray" points="323,-342 223,-342 "/>
<path fill="none" stroke="gray" d="M223,-342C217,-342 211,-336 211,-330"/>
<polyline fill="none" stroke="gray" points="211,-330 211,-118 "/>
<path fill="none" stroke="gray" d="M211,-118C211,-112 217,-106 223,-106"/>
<text text-anchor="middle" x="273" y="-328.1" font-family="Times Roman,serif" font-size="11.00" fill="gray">Utility</text>
</g>
<g id="graph7" class="cluster"><title>cluster_\TN\Model</title>
<polyline fill="none" stroke="gray" points="239,-24 307,-24 "/>
<path fill="none" stroke="gray" d="M307,-24C313,-24 319,-30 319,-36"/>
<polyline fill="none" stroke="gray" points="319,-36 319,-86 "/>
<path fill="none" stroke="gray" d="M319,-86C319,-92 313,-98 307,-98"/>
<polyline fill="none" stroke="gray" points="307,-98 239,-98 "/>
<path fill="none" stroke="gray" d="M239,-98C233,-98 227,-92 227,-86"/>
<polyline fill="none" stroke="gray" points="227,-86 227,-36 "/>
<path fill="none" stroke="gray" d="M227,-36C227,-30 233,-24 239,-24"/>
<text text-anchor="middle" x="273" y="-84.1" font-family="Times Roman,serif" font-size="11.00" fill="gray">Model</text>
</g>
<!-- \\TN\\Exception\\FtpConnectionException -->
<g id="node4" class="node"><title>\\TN\\Exception\\FtpConnectionException</title>
<polygon fill="none" stroke="black" points="347,-584 199,-584 199,-548 347,-548 347,-584"/>
<text text-anchor="middle" x="273" y="-563.1" font-family="Times Roman,serif" font-size="11.00">FtpConnectionException</text>
</g>
<!-- \\Exception -->
<g id="node17" class="node"><title>\\Exception</title>
<ellipse fill="none" stroke="black" cx="63" cy="-512" rx="62.9325" ry="18.3848"/>
<text text-anchor="middle" x="63" y="-508.4" font-family="Times Roman,serif" font-size="14.00" fill="gray">\Exception</text>
</g>
<!-- \\TN\\Exception\\FtpConnectionException&#45;&gt;\\Exception -->
<g id="edge8" class="edge"><title>\\TN\\Exception\\FtpConnectionException&#45;&gt;\\Exception</title>
<path fill="none" stroke="black" d="M202.781,-547.944C175.834,-541.014 145.441,-533.199 119.895,-526.63"/>
<polygon fill="none" stroke="black" points="120.554,-523.186 109.997,-524.085 118.811,-529.965 120.554,-523.186"/>
</g>
<!-- \\TN\\Exception\\FtpLoginException -->
<g id="node5" class="node"><title>\\TN\\Exception\\FtpLoginException</title>
<polygon fill="none" stroke="black" points="331,-530 215,-530 215,-494 331,-494 331,-530"/>
<text text-anchor="middle" x="273" y="-509.1" font-family="Times Roman,serif" font-size="11.00">FtpLoginException</text>
</g>
<!-- \\TN\\Exception\\FtpLoginException&#45;&gt;\\Exception -->
<g id="edge10" class="edge"><title>\\TN\\Exception\\FtpLoginException&#45;&gt;\\Exception</title>
<path fill="none" stroke="black" d="M214.224,-512C190.015,-512 161.71,-512 136.178,-512"/>
<polygon fill="none" stroke="black" points="136.173,-508.5 126.173,-512 136.173,-515.5 136.173,-508.5"/>
</g>
<!-- \\TN\\Exception\\FtpReadException -->
<g id="node6" class="node"><title>\\TN\\Exception\\FtpReadException</title>
<polygon fill="none" stroke="black" points="331,-476 215,-476 215,-440 331,-440 331,-476"/>
<text text-anchor="middle" x="273" y="-455.1" font-family="Times Roman,serif" font-size="11.00">FtpReadException</text>
</g>
<!-- \\TN\\Exception\\FtpReadException&#45;&gt;\\Exception -->
<g id="edge12" class="edge"><title>\\TN\\Exception\\FtpReadException&#45;&gt;\\Exception</title>
<path fill="none" stroke="black" d="M214.782,-472.97C185.119,-480.598 149.194,-489.836 119.743,-497.409"/>
<polygon fill="none" stroke="black" points="118.835,-494.028 110.022,-499.909 120.578,-500.808 118.835,-494.028"/>
</g>
<!-- \\TN\\Controller\\RestController -->
<g id="node8" class="node"><title>\\TN\\Controller\\RestController</title>
<polygon fill="none" stroke="black" points="319,-394 227,-394 227,-358 319,-358 319,-394"/>
<text text-anchor="middle" x="273" y="-373.1" font-family="Times Roman,serif" font-size="11.00">RestController</text>
</g>
<!-- \\TN\\Utility\\RemoteFileSaver -->
<g id="node10" class="node"><title>\\TN\\Utility\\RemoteFileSaver</title>
<polygon fill="none" stroke="black" points="327,-312 219,-312 219,-276 327,-276 327,-312"/>
<text text-anchor="middle" x="273" y="-291.1" font-family="Times Roman,serif" font-size="11.00">RemoteFileSaver</text>
</g>
<!-- \\TN\\Utility\\Decompressor -->
<g id="node11" class="node"><title>\\TN\\Utility\\Decompressor</title>
<polygon fill="none" stroke="black" points="321,-258 225,-258 225,-222 321,-222 321,-258"/>
<text text-anchor="middle" x="273" y="-237.1" font-family="Times Roman,serif" font-size="11.00">Decompressor</text>
</g>
<!-- \\TN\\Utility\\Parser -->
<g id="node12" class="node"><title>\\TN\\Utility\\Parser</title>
<polygon fill="none" stroke="black" points="300,-204 246,-204 246,-168 300,-168 300,-204"/>
<text text-anchor="middle" x="273" y="-183.1" font-family="Times Roman,serif" font-size="11.00">Parser</text>
</g>
<!-- \\TN\\Utility\\FtpWrapper -->
<g id="node13" class="node"><title>\\TN\\Utility\\FtpWrapper</title>
<polygon fill="none" stroke="black" points="313,-150 233,-150 233,-114 313,-114 313,-150"/>
<text text-anchor="middle" x="273" y="-129.1" font-family="Times Roman,serif" font-size="11.00">FtpWrapper</text>
</g>
<!-- \\TN\\Model\\ImdbModel -->
<g id="node15" class="node"><title>\\TN\\Model\\ImdbModel</title>
<polygon fill="none" stroke="black" points="311,-68 235,-68 235,-32 311,-32 311,-68"/>
<text text-anchor="middle" x="273" y="-47.1" font-family="Times Roman,serif" font-size="11.00">ImdbModel</text>
</g>
</g>
</svg>
